<svg width="11" height="7" viewBox="0 0 11 7" fill="none" xmlns="http://www.w3.org/2000/svg" style="transform: rotate(180deg)">
<path d="M0.95716 0.961326L0.885402 1.03429V1.04706C0.798024 1.16865 0.75 1.31517 0.75 1.46687C0.75 1.65599 0.824643 1.83707 0.957127 1.97183L0.957125 1.97183L0.957963 1.97267L4.99491 6.04004L5.00192 6.04711L5.00947 6.05359L5.06122 6.09803L5.06752 6.10344L5.07417 6.10843C5.21152 6.21136 5.38176 6.26079 5.55282 6.24803C5.72371 6.23527 5.88456 6.16126 6.00491 6.03909C6.00504 6.03895 6.00518 6.03881 6.00532 6.03867L10.0415 1.97268L10.0477 1.96643L10.0534 1.95976L10.0984 1.90754L10.1048 1.90006L10.1107 1.8921C10.2118 1.75404 10.2607 1.58468 10.248 1.41392C10.2354 1.24317 10.1622 1.08286 10.042 0.961054L10.0347 0.953696L10.0269 0.946963L9.97515 0.902523L9.96885 0.897111L9.9622 0.892129C9.82485 0.789197 9.65461 0.739765 9.48355 0.75253C9.31265 0.765283 9.15178 0.839311 9.03143 0.961496C9.0313 0.961624 9.03118 0.961753 9.03105 0.961882L5.49974 4.51915L1.96758 0.959968L1.96057 0.952898L1.95301 0.946408L1.90126 0.901968L1.89496 0.896556L1.88831 0.891574C1.75096 0.788642 1.58072 0.739209 1.40966 0.751974C1.23858 0.76474 1.07755 0.838911 0.95716 0.961326Z" fill="#FF4543" stroke="#FF4543" stroke-width="0.5"/>
</svg>
