<svg width="18" height="18" viewBox="0 0 18 18" fill="none" xmlns="http://www.w3.org/2000/svg">
<path fill-rule="evenodd" clip-rule="evenodd" d="M1.12858 0.883136C1.61633 0.395393 2.40711 0.395394 2.89486 0.883137L17.0251 15.0133C17.5128 15.5011 17.5128 16.2919 17.0251 16.7796C16.5373 17.2674 15.7465 17.2673 15.2588 16.7796L1.12858 2.64941C0.64084 2.16167 0.64084 1.37088 1.12858 0.883136Z" fill="#222222"/>
<path fill-rule="evenodd" clip-rule="evenodd" d="M17.1175 0.883136C16.6298 0.395393 15.839 0.395394 15.3512 0.883137L1.22104 15.0133C0.733298 15.5011 0.733296 16.2919 1.22104 16.7796C1.70878 17.2674 2.49957 17.2673 2.98731 16.7796L17.1175 2.64941C17.6053 2.16167 17.6053 1.37088 17.1175 0.883136Z" fill="#222222"/>
</svg>
