<svg width="16" height="12" viewBox="0 0 16 12" fill="none" xmlns="http://www.w3.org/2000/svg">
<path d="M14.8571 12H1.14286C0.839753 12 0.549063 11.8736 0.334735 11.6485C0.120408 11.4235 0 11.1183 0 10.8C0 10.4817 0.120408 10.1765 0.334735 9.95147C0.549063 9.72643 0.839753 9.6 1.14286 9.6H14.8571C15.1602 9.6 15.4509 9.72643 15.6653 9.95147C15.8796 10.1765 16 10.4817 16 10.8C16 11.1183 15.8796 11.4235 15.6653 11.6485C15.4509 11.8736 15.1602 12 14.8571 12ZM14.8571 7.2H1.14286C0.839753 7.2 0.549063 7.07357 0.334735 6.84853C0.120408 6.62349 0 6.31826 0 6C0 5.68174 0.120408 5.37652 0.334735 5.15147C0.549063 4.92643 0.839753 4.8 1.14286 4.8H14.8571C15.1602 4.8 15.4509 4.92643 15.6653 5.15147C15.8796 5.37652 16 5.68174 16 6C16 6.31826 15.8796 6.62349 15.6653 6.84853C15.4509 7.07357 15.1602 7.2 14.8571 7.2ZM14.8571 2.4H1.14286C0.839753 2.4 0.549063 2.27357 0.334735 2.04853C0.120408 1.82348 0 1.51826 0 1.2C0 0.88174 0.120408 0.576516 0.334735 0.351472C0.549063 0.126428 0.839753 0 1.14286 0H14.8571C15.1602 0 15.4509 0.126428 15.6653 0.351472C15.8796 0.576516 16 0.88174 16 1.2C16 1.51826 15.8796 1.82348 15.6653 2.04853C15.4509 2.27357 15.1602 2.4 14.8571 2.4Z" fill="black"/>
</svg>
