<svg width="14" height="13" viewBox="0 0 14 13" fill="none" xmlns="http://www.w3.org/2000/svg">
<path d="M10.2245 0C9.57563 0.00111229 8.93796 0.175507 8.37312 0.506341C7.80828 0.837176 7.33535 1.31327 7 1.88865C6.57373 1.15847 5.92836 0.592903 5.16252 0.278375C4.39668 -0.036153 3.55247 -0.0823493 2.75889 0.146845C1.96532 0.376039 1.26601 0.86802 0.767816 1.54761C0.269625 2.22721 -4.80948e-05 3.05704 6.43369e-09 3.91033C6.43369e-09 8.57156 7 13 7 13C7 13 14 8.79911 14 3.91033C14 2.87324 13.6022 1.87864 12.8942 1.14531C12.1862 0.41198 11.2258 0 10.2245 0Z" fill="#FF4944"/>
</svg>
