<?xml version="1.0" encoding="utf-8"?>
<!-- Generator: Adobe Illustrator 27.8.1, SVG Export Plug-In . SVG Version: 6.00 Build 0)  -->
<svg version="1.1" id="Layer_1" xmlns="http://www.w3.org/2000/svg" xmlns:xlink="http://www.w3.org/1999/xlink" x="0px" y="0px"
	 viewBox="0 0 15.5 18.8" style="enable-background:new 0 0 15.5 18.8;" xml:space="preserve">
<style type="text/css">
	.st0{fill:none;stroke:#FFFFFF;stroke-width:2;}
	.st1{fill:none;stroke:#FFFFFF;stroke-width:2;}
</style>
<path class="st0" d="M1.4,7.7c0-3.5,2.9-6.3,6.4-6.3s6.4,2.8,6.4,6.3c0,2.4-1.6,4.7-3.2,6.6c-0.8,0.9-1.7,1.7-2.5,2.3
	c-0.3,0.2-0.5,0.4-0.7,0.5c-0.2-0.1-0.4-0.3-0.7-0.5c-0.7-0.6-1.7-1.4-2.5-2.3C2.9,12.4,1.4,10.1,1.4,7.7z"/>
<path class="st1" d="M9.6,7.4c0,1-0.8,1.9-1.9,1.9c-1,0-1.9-0.8-1.9-1.9c0-1,0.8-1.9,1.9-1.9C8.8,5.5,9.6,6.3,9.6,7.4z"/>
</svg>
